<svg width="100" height="100" viewBox="0 0 100 100" fill="none" xmlns="http://www.w3.org/2000/svg">
<path d="M87.215 56.71C88.35 54.555 89 52.105 89 49.5C89 42.879 84.841 37.243 78.999 35.022C78.999 35.015 79 35.008 79 35C79 23.402 69.598 14 58 14C48.216 14 40.019 20.701 37.687 29.757C36.211 29.272 34.638 29 33 29C25.308 29 18.977 34.793 18.11 42.252C12.906 43.353 9 47.969 9 53.5C9 59.851 14.149 65 20.5 65C20.677 65 20.852 64.988 21.026 64.978C21.022 65.153 21 65.324 21 65.5C21 76.822 30.178 86 41.5 86C47.937 86 53.675 83.028 57.434 78.386C59.612 80.611 62.64 82 66 82C70.65 82 74.674 79.35 76.666 75.482C77.718 75.817 78.837 76 80 76C86.075 76 91 71.075 91 65C91 61.689 89.53 58.727 87.215 56.71Z" fill="#C7EDE6"/>
<path d="M79.875 60.5C79.875 60.5 83.515 60.5 86 60.5C88.485 60.5 90.5 58.485 90.5 56C90.5 53.667 88.718 51.771 86.445 51.545C86.467 51.364 86.5 51.187 86.5 51C86.5 48.515 84.485 46.5 82 46.5C80.562 46.5 79.297 47.186 78.473 48.236C78.333 45.6 76.171 43.5 73.5 43.5C70.739 43.5 68.5 45.739 68.5 48.5C68.5 48.946 68.577 49.37 68.687 49.782C68.045 49.005 67.086 48.5 66 48.5C64.219 48.5 62.766 49.835 62.545 51.555C62.364 51.533 62.187 51.5 62 51.5C59.515 51.5 57.5 53.515 57.5 56C57.5 58.485 59.515 60.5 62 60.5C64.485 60.5 71.5 60.5 71.5 60.5H76.875V61H79.875V60.5Z" fill="#FDFCEF"/>
<path d="M73.5 43C70.467 43 68 45.467 68 48.5C68 48.516 68 48.531 68 48.547C67.398 48.192 66.71 48 66 48C64.169 48 62.589 49.261 62.142 51.005C62.095 51.002 62.048 51 62 51C59.243 51 57 53.243 57 56C57 58.757 59.243 61 62 61H76.875C77.151 61 77.375 60.776 77.375 60.5C77.375 60.224 77.151 60 76.875 60H62C59.794 60 58 58.206 58 56C58 53.794 59.794 52 62 52C62.117 52 62.23 52.017 62.343 52.032L62.484 52.051C62.505 52.054 62.525 52.055 62.546 52.055C62.792 52.055 63.008 51.87 63.041 51.618C63.232 50.125 64.504 49 66 49C66.885 49 67.723 49.401 68.301 50.1C68.399 50.218 68.542 50.282 68.687 50.282C68.765 50.282 68.843 50.264 68.915 50.226C69.124 50.119 69.229 49.88 69.169 49.653C69.054 49.218 69 48.852 69 48.5C69 46.019 71.019 44 73.5 44C75.881 44 77.847 45.872 77.974 48.263C77.985 48.471 78.124 48.65 78.323 48.713C78.373 48.729 78.424 48.737 78.475 48.737C78.625 48.737 78.771 48.668 78.867 48.545C79.638 47.563 80.779 47 82 47C84.206 47 86 48.794 86 51C86 51.117 85.983 51.23 85.968 51.343L85.949 51.484C85.933 51.618 85.971 51.752 86.055 51.857C86.139 51.962 86.262 52.029 86.395 52.042C88.451 52.247 90 53.949 90 56C90 58.206 88.206 60 86 60H79.875C79.599 60 79.375 60.224 79.375 60.5C79.375 60.776 79.599 61 79.875 61H86C88.757 61 91 58.757 91 56C91 53.603 89.311 51.587 86.997 51.123C86.999 51.082 87 51.041 87 51C87 48.243 84.757 46 82 46C80.824 46 79.707 46.416 78.817 47.164C78.219 44.76 76.055 43 73.5 43Z" fill="#472B29"/>
<path d="M72 50C70.597 50 69.391 50.999 69.087 52.341C68.72 52.119 68.301 52 67.875 52C66.673 52 65.677 52.897 65.522 54.068C65.319 54.022 65.126 54 64.938 54C63.409 54 62.127 55.2 62.02 56.732C62.01 56.87 62.114 56.99 62.251 57C62.257 57 62.263 57 62.269 57C62.399 57 62.509 56.899 62.518 56.768C62.607 55.497 63.669 54.5 64.937 54.5C65.166 54.5 65.407 54.542 65.675 54.627C65.697 54.634 65.72 54.637 65.742 54.637C65.797 54.637 65.852 54.617 65.898 54.583C65.962 54.537 66 54.455 66 54.375C66 53.341 66.841 52.5 67.875 52.5C68.322 52.5 68.76 52.668 69.106 52.973C69.153 53.014 69.212 53.036 69.271 53.036C69.303 53.036 69.334 53.03 69.364 53.017C69.452 52.982 69.512 52.9 69.519 52.805C69.623 51.512 70.712 50.5 72 50.5C72.208 50.5 72.425 50.534 72.682 50.607C72.705 50.614 72.729 50.617 72.752 50.617C72.861 50.617 72.959 50.544 72.991 50.435C73.029 50.302 72.952 50.164 72.819 50.126C72.517 50.04 72.256 50 72 50ZM85.883 51.5C84.557 51.5 83.375 52.397 83.009 53.682C82.971 53.815 83.048 53.953 83.181 53.991C83.205 53.997 83.228 54 83.25 54C83.359 54 83.459 53.928 83.49 53.818C83.795 52.748 84.779 52 85.883 52C86 52 86.113 52.014 86.225 52.029C86.237 52.031 86.248 52.032 86.26 52.032C86.381 52.032 86.489 51.94 86.506 51.815C86.525 51.678 86.429 51.552 86.292 51.534C86.158 51.516 86.022 51.5 85.883 51.5Z" fill="#472B29"/>
<path d="M29.989 64.011V35.989C29.989 32.123 33.123 28.989 36.989 28.989H65.012C68.878 28.989 72.012 32.123 72.012 35.989V64.012C72.012 67.878 68.878 71.012 65.012 71.012H36.989C33.123 71.011 29.989 67.877 29.989 64.011Z" fill="#DEE0E2"/>
<path d="M65 29.4C68.639 29.4 71.6 32.361 71.6 36V64C71.6 67.639 68.639 70.6 65 70.6H37C33.361 70.6 30.4 67.639 30.4 64V36C30.4 32.361 33.361 29.4 37 29.4H65ZM65 28H37C32.582 28 29 31.582 29 36V64C29 68.418 32.582 72 37 72H65C69.418 72 73 68.418 73 64V36C73 31.582 69.418 28 65 28Z" fill="#472B29"/>
<path d="M63.375 68.75H38.625C35.109 68.75 32.25 65.89 32.25 62.375V37.625C32.25 34.11 35.109 31.25 38.625 31.25H62.625C62.832 31.25 63 31.418 63 31.625C63 31.832 62.832 32 62.625 32H38.625C35.523 32 33 34.523 33 37.625V62.375C33 65.477 35.523 68 38.625 68H63.375C66.477 68 69 65.477 69 62.375V48.375C69 48.168 69.168 48 69.375 48C69.582 48 69.75 48.168 69.75 48.375V62.375C69.75 65.89 66.891 68.75 63.375 68.75Z" fill="#472B29"/>
<path d="M69.375 43C69.168 43 69 42.832 69 42.625V41.375C69 41.168 69.168 41 69.375 41C69.582 41 69.75 41.168 69.75 41.375V42.625C69.75 42.832 69.582 43 69.375 43Z" fill="#472B29"/>
<path d="M69.375 47C69.168 47 69 46.832 69 46.625V44.375C69 44.168 69.168 44 69.375 44C69.582 44 69.75 44.168 69.75 44.375V46.625C69.75 46.832 69.582 47 69.375 47Z" fill="#472B29"/>
<path d="M63.5 42.5H60C59.056 42.5 58.167 42.055 57.6 41.3L56.4 39.7C55.833 38.945 54.944 38.5 54 38.5H48C47.056 38.5 46.167 38.945 45.6 39.7L44.4 41.3C43.833 42.055 42.944 42.5 42 42.5H38.5C37.395 42.5 36.5 43.395 36.5 44.5V58.5C36.5 59.605 37.395 60.5 38.5 60.5H63.5C64.605 60.5 65.5 59.605 65.5 58.5V44.5C65.5 43.395 64.605 42.5 63.5 42.5Z" fill="#3B3634"/>
<path d="M41.5 41H39.5C39.224 41 39 40.776 39 40.5V40C39 39.449 39.449 39 40 39H41C41.551 39 42 39.449 42 40V40.5C42 40.776 41.776 41 41.5 41ZM40 40H41H40Z" fill="#472B29"/>
<path d="M51 57C47.416 57 44.5 54.084 44.5 50.5C44.5 46.916 47.416 44 51 44C54.584 44 57.5 46.916 57.5 50.5C57.5 54.084 54.584 57 51 57ZM51 45C47.967 45 45.5 47.467 45.5 50.5C45.5 53.533 47.967 56 51 56C54.033 56 56.5 53.533 56.5 50.5C56.5 47.467 54.033 45 51 45Z" fill="#E1E0D8"/>
<path d="M59 46C59.5523 46 60 45.5523 60 45C60 44.4477 59.5523 44 59 44C58.4477 44 58 44.4477 58 45C58 45.5523 58.4477 46 59 46Z" fill="#FCC938"/>
<path d="M63.5 61H38.5C37.122 61 36 59.878 36 58.5V44.5C36 43.122 37.122 42 38.5 42H42C42.783 42 43.53 41.626 44 41L45.2 39.4C45.857 38.524 46.904 38 48 38H54C55.096 38 56.143 38.523 56.8 39.4L58 41C58.47 41.626 59.217 42 60 42H63.5C64.878 42 66 43.122 66 44.5V58.5C66 59.878 64.878 61 63.5 61ZM38.5 43C37.673 43 37 43.673 37 44.5V58.5C37 59.327 37.673 60 38.5 60H63.5C64.327 60 65 59.327 65 58.5V44.5C65 43.673 64.327 43 63.5 43H60C58.904 43 57.857 42.477 57.2 41.6L56 40C55.53 39.374 54.783 39 54 39H48C47.217 39 46.47 39.374 46 40L44.8 41.6C44.143 42.477 43.096 43 42 43H38.5Z" fill="#472B29"/>
<path d="M15.405 51H5.5C5.224 51 5 50.776 5 50.5C5 50.224 5.224 50 5.5 50H15.405C15.681 50 15.905 50.224 15.905 50.5C15.905 50.776 15.682 51 15.405 51ZM18.5 51H17.5C17.224 51 17 50.776 17 50.5C17 50.224 17.224 50 17.5 50H18.5C18.776 50 19 50.224 19 50.5C19 50.776 18.777 51 18.5 51ZM23.491 53H14.5C14.224 53 14 52.776 14 52.5C14 52.224 14.224 52 14.5 52H23.491C23.767 52 23.991 52.224 23.991 52.5C23.991 52.776 23.767 53 23.491 53ZM12.5 53H11.5C11.224 53 11 52.776 11 52.5C11 52.224 11.224 52 11.5 52H12.5C12.776 52 13 52.224 13 52.5C13 52.776 12.777 53 12.5 53ZM9.5 53H7.5C7.224 53 7 52.776 7 52.5C7 52.224 7.224 52 7.5 52H9.5C9.776 52 10 52.224 10 52.5C10 52.776 9.777 53 9.5 53ZM15.5 55H13.5C13.224 55 13 54.776 13 54.5C13 54.224 13.224 54 13.5 54H15.5C15.776 54 16 54.224 16 54.5C16 54.776 15.776 55 15.5 55ZM18.5 46C18.323 46 17.677 46 17.5 46C17.224 46 17 46.224 17 46.5C17 46.776 17.224 47 17.5 47C17.677 47 18.323 47 18.5 47C18.776 47 19 46.776 19 46.5C19 46.224 18.776 46 18.5 46ZM18.5 48C18.323 48 13.677 48 13.5 48C13.224 48 13 48.224 13 48.5C13 48.776 13.224 49 13.5 49C13.677 49 18.323 49 18.5 49C18.776 49 19 48.776 19 48.5C19 48.224 18.776 48 18.5 48ZM23.5 50C23.323 50 20.677 50 20.5 50C20.224 50 20 50.224 20 50.5C20 50.776 20.224 51 20.5 51C20.677 51 23.323 51 23.5 51C23.776 51 24 50.776 24 50.5C24 50.224 23.776 50 23.5 50Z" fill="white"/>
<path d="M72.5 24H62.5C62.224 24 62 23.776 62 23.5C62 23.224 62.224 23 62.5 23H72.5C72.776 23 73 23.224 73 23.5C73 23.776 72.776 24 72.5 24ZM76.5 24H74.5C74.224 24 74 23.776 74 23.5C74 23.224 74.224 23 74.5 23H76.5C76.776 23 77 23.224 77 23.5C77 23.776 76.776 24 76.5 24ZM81.5 26H71.5C71.224 26 71 25.776 71 25.5C71 25.224 71.224 25 71.5 25H81.5C81.776 25 82 25.224 82 25.5C82 25.776 81.777 26 81.5 26ZM69.5 26H68.5C68.224 26 68 25.776 68 25.5C68 25.224 68.224 25 68.5 25H69.5C69.776 25 70 25.224 70 25.5C70 25.776 69.776 26 69.5 26ZM66.375 26H64.5C64.224 26 64 25.776 64 25.5C64 25.224 64.224 25 64.5 25H66.375C66.651 25 66.875 25.224 66.875 25.5C66.875 25.776 66.651 26 66.375 26ZM75.5 22H70.5C70.224 22 70 21.776 70 21.5C70 21.224 70.224 21 70.5 21H75.5C75.776 21 76 21.224 76 21.5C76 21.776 75.777 22 75.5 22ZM72.5 28H70.5C70.224 28 70 27.776 70 27.5C70 27.224 70.224 27 70.5 27H72.5C72.776 27 73 27.224 73 27.5C73 27.776 72.776 28 72.5 28Z" fill="white"/>
<path d="M36.5 73.5C36.5 73.5 38.067 73.5 40 73.5C41.933 73.5 43.5 71.933 43.5 70C43.5 68.219 42.165 66.766 40.445 66.545C40.473 66.366 40.5 66.187 40.5 66C40.5 64.067 38.933 62.5 37 62.5C35.968 62.5 35.05 62.955 34.41 63.665C34.026 61.857 32.423 60.5 30.5 60.5C28.291 60.5 26.5 62.291 26.5 64.5C26.5 64.691 26.53 64.874 26.556 65.058C26.128 64.714 25.592 64.5 25 64.5C23.772 64.5 22.755 65.387 22.545 66.555C22.366 66.527 22.187 66.5 22 66.5C20.067 66.5 18.5 68.067 18.5 70C18.5 71.933 20.067 73.5 22 73.5C23.933 73.5 29.5 73.5 29.5 73.5V74H36.5V73.5Z" fill="#FDFCEF"/>
<path d="M38.25 69C38.112 69 38 68.888 38 68.75C38 67.527 38.995 66.532 40.218 66.532C40.252 66.541 40.955 66.531 41.462 66.668C41.595 66.704 41.674 66.841 41.638 66.974C41.602 67.108 41.465 67.187 41.332 67.15C40.888 67.03 40.232 67.03 40.219 67.032C39.271 67.032 38.5 67.803 38.5 68.75C38.5 68.888 38.388 69 38.25 69ZM31.5 73C31.224 73 31 73.224 31 73.5C31 73.776 31.224 74 31.5 74C31.776 74 32 73.776 32 73.5C32 73.224 31.776 73 31.5 73Z" fill="#472B29"/>
<path d="M40 74H36.5C36.224 74 36 73.776 36 73.5C36 73.224 36.224 73 36.5 73H40C41.654 73 43 71.654 43 70C43 68.504 41.875 67.232 40.382 67.041C40.248 67.023 40.127 66.953 40.046 66.845C39.965 66.737 39.931 66.601 39.952 66.468C39.975 66.314 40 66.16 40 66C40 64.346 38.654 63 37 63C36.15 63 35.362 63.355 34.781 64C34.656 64.139 34.46 64.198 34.281 64.148C34.099 64.099 33.96 63.953 33.921 63.769C33.58 62.165 32.141 61 30.5 61C28.57 61 27 62.57 27 64.5C27 64.643 27.021 64.78 27.041 64.918C27.07 65.121 26.978 65.356 26.799 65.458C26.62 65.56 26.403 65.576 26.243 65.448C25.878 65.155 25.449 65 25 65C24.034 65 23.208 65.691 23.037 66.644C22.989 66.911 22.741 67.09 22.468 67.049C22.314 67.025 22.16 67 22 67C20.346 67 19 68.346 19 70C19 71.654 20.346 73 22 73H29.5C29.776 73 30 73.224 30 73.5C30 73.776 29.776 74 29.5 74H22C19.794 74 18 72.206 18 70C18 67.794 19.794 66 22 66C22.059 66 22.116 66.002 22.174 66.006C22.588 64.82 23.711 64 25 64C25.349 64 25.689 64.061 26.011 64.18C26.176 61.847 28.126 60 30.5 60C32.331 60 33.966 61.127 34.653 62.774C35.333 62.276 36.155 62 37 62C39.206 62 41 63.794 41 66C41 66.048 40.999 66.095 40.996 66.142C42.739 66.59 44 68.169 44 70C44 72.206 42.206 74 40 74Z" fill="#472B29"/>
<path d="M34.5 73C34.341 73 33.659 73 33.5 73C33.224 73 33 73.224 33 73.5C33 73.776 33.224 74 33.5 74C33.659 74 34.341 74 34.5 74C34.776 74 35 73.776 35 73.5C35 73.224 34.776 73 34.5 73Z" fill="#472B29"/>
<path d="M11.75 88H9.05682V79.2727H11.8693C12.7159 79.2727 13.4403 79.4474 14.0426 79.7969C14.6449 80.1435 15.1065 80.642 15.4276 81.2926C15.7486 81.9403 15.9091 82.7159 15.9091 83.6193C15.9091 84.5284 15.7472 85.3111 15.4233 85.9673C15.0994 86.6207 14.6278 87.1236 14.0085 87.4759C13.3892 87.8253 12.6364 88 11.75 88ZM10.1136 87.0625H11.6818C12.4034 87.0625 13.0014 86.9233 13.4759 86.6449C13.9503 86.3665 14.304 85.9702 14.5369 85.456C14.7699 84.9418 14.8864 84.3295 14.8864 83.6193C14.8864 82.9148 14.7713 82.3082 14.5412 81.7997C14.3111 81.2884 13.9673 80.8963 13.5099 80.6236C13.0526 80.348 12.483 80.2102 11.8011 80.2102H10.1136V87.0625ZM20.2045 88.1364C19.6136 88.1364 19.0952 87.9957 18.6491 87.7145C18.206 87.4332 17.8594 87.0398 17.6094 86.5341C17.3622 86.0284 17.2386 85.4375 17.2386 84.7614C17.2386 84.0795 17.3622 83.4844 17.6094 82.9759C17.8594 82.4673 18.206 82.0724 18.6491 81.7912C19.0952 81.5099 19.6136 81.3693 20.2045 81.3693C20.7955 81.3693 21.3125 81.5099 21.7557 81.7912C22.2017 82.0724 22.5483 82.4673 22.7955 82.9759C23.0455 83.4844 23.1705 84.0795 23.1705 84.7614C23.1705 85.4375 23.0455 86.0284 22.7955 86.5341C22.5483 87.0398 22.2017 87.4332 21.7557 87.7145C21.3125 87.9957 20.7955 88.1364 20.2045 88.1364ZM20.2045 87.233C20.6534 87.233 21.0227 87.1179 21.3125 86.8878C21.6023 86.6577 21.8168 86.3551 21.956 85.9801C22.0952 85.6051 22.1648 85.1989 22.1648 84.7614C22.1648 84.3239 22.0952 83.9162 21.956 83.5384C21.8168 83.1605 21.6023 82.8551 21.3125 82.6222C21.0227 82.3892 20.6534 82.2727 20.2045 82.2727C19.7557 82.2727 19.3864 82.3892 19.0966 82.6222C18.8068 82.8551 18.5923 83.1605 18.4531 83.5384C18.3139 83.9162 18.2443 84.3239 18.2443 84.7614C18.2443 85.1989 18.3139 85.6051 18.4531 85.9801C18.5923 86.3551 18.8068 86.6577 19.0966 86.8878C19.3864 87.1179 19.7557 87.233 20.2045 87.233ZM25.9659 88L23.9716 81.4545H25.0284L26.4432 86.4659H26.5114L27.9091 81.4545H28.983L30.3636 86.4489H30.4318L31.8466 81.4545H32.9034L30.9091 88H29.9205L28.4886 82.9716H28.3864L26.9545 88H25.9659ZM35.2386 84.0625V88H34.233V81.4545H35.2045V82.4773H35.2898C35.4432 82.1449 35.6761 81.8778 35.9886 81.6761C36.3011 81.4716 36.7045 81.3693 37.1989 81.3693C37.642 81.3693 38.0298 81.4602 38.3622 81.642C38.6946 81.821 38.9531 82.0938 39.1378 82.4602C39.3224 82.8239 39.4148 83.2841 39.4148 83.8409V88H38.4091V83.9091C38.4091 83.3949 38.2756 82.9943 38.0085 82.7074C37.7415 82.4176 37.375 82.2727 36.9091 82.2727C36.5881 82.2727 36.3011 82.3423 36.0483 82.4815C35.7983 82.6207 35.6009 82.8239 35.456 83.0909C35.3111 83.358 35.2386 83.6818 35.2386 84.0625ZM42.2582 79.2727V88H41.2525V79.2727H42.2582ZM46.7592 88.1364C46.1683 88.1364 45.6499 87.9957 45.2038 87.7145C44.7607 87.4332 44.4141 87.0398 44.1641 86.5341C43.9169 86.0284 43.7933 85.4375 43.7933 84.7614C43.7933 84.0795 43.9169 83.4844 44.1641 82.9759C44.4141 82.4673 44.7607 82.0724 45.2038 81.7912C45.6499 81.5099 46.1683 81.3693 46.7592 81.3693C47.3501 81.3693 47.8672 81.5099 48.3104 81.7912C48.7564 82.0724 49.103 82.4673 49.3501 82.9759C49.6001 83.4844 49.7251 84.0795 49.7251 84.7614C49.7251 85.4375 49.6001 86.0284 49.3501 86.5341C49.103 87.0398 48.7564 87.4332 48.3104 87.7145C47.8672 87.9957 47.3501 88.1364 46.7592 88.1364ZM46.7592 87.233C47.2081 87.233 47.5774 87.1179 47.8672 86.8878C48.157 86.6577 48.3714 86.3551 48.5107 85.9801C48.6499 85.6051 48.7195 85.1989 48.7195 84.7614C48.7195 84.3239 48.6499 83.9162 48.5107 83.5384C48.3714 83.1605 48.157 82.8551 47.8672 82.6222C47.5774 82.3892 47.2081 82.2727 46.7592 82.2727C46.3104 82.2727 45.9411 82.3892 45.6513 82.6222C45.3615 82.8551 45.147 83.1605 45.0078 83.5384C44.8686 83.9162 44.799 84.3239 44.799 84.7614C44.799 85.1989 44.8686 85.6051 45.0078 85.9801C45.147 86.3551 45.3615 86.6577 45.6513 86.8878C45.9411 87.1179 46.3104 87.233 46.7592 87.233ZM53.1864 88.1534C52.7717 88.1534 52.3952 88.0753 52.0572 87.919C51.7191 87.7599 51.4506 87.5312 51.2518 87.233C51.0529 86.9318 50.9535 86.5682 50.9535 86.142C50.9535 85.767 51.0273 85.4631 51.1751 85.2301C51.3228 84.9943 51.5202 84.8097 51.7674 84.6761C52.0146 84.5426 52.2873 84.4432 52.5856 84.3778C52.8867 84.3097 53.1893 84.2557 53.4933 84.2159C53.891 84.1648 54.2134 84.1264 54.4606 84.1009C54.7106 84.0724 54.8924 84.0256 55.006 83.9602C55.1225 83.8949 55.1808 83.7812 55.1808 83.6193V83.5852C55.1808 83.1648 55.0657 82.8381 54.8356 82.6051C54.6083 82.3722 54.2631 82.2557 53.8001 82.2557C53.32 82.2557 52.9435 82.3608 52.6708 82.571C52.3981 82.7812 52.2063 83.0057 52.0955 83.2443L51.141 82.9034C51.3114 82.5057 51.5387 82.196 51.8228 81.9744C52.1097 81.75 52.4222 81.5937 52.7603 81.5057C53.1012 81.4148 53.4364 81.3693 53.766 81.3693C53.9762 81.3693 54.2177 81.3949 54.4904 81.446C54.766 81.4943 55.0316 81.5952 55.2873 81.7486C55.5458 81.902 55.7603 82.1335 55.9308 82.4432C56.1012 82.7528 56.1864 83.1676 56.1864 83.6875V88H55.1808V87.1136H55.1296C55.0614 87.2557 54.9478 87.4077 54.7887 87.5696C54.6296 87.7315 54.418 87.8693 54.1538 87.983C53.8896 88.0966 53.5671 88.1534 53.1864 88.1534ZM53.3398 87.25C53.7376 87.25 54.0728 87.1719 54.3455 87.0156C54.6211 86.8594 54.8285 86.6577 54.9677 86.4105C55.1097 86.1634 55.1808 85.9034 55.1808 85.6307V84.7102C55.1381 84.7614 55.0444 84.8082 54.8995 84.8509C54.7575 84.8906 54.5927 84.9261 54.4052 84.9574C54.2205 84.9858 54.0401 85.0114 53.864 85.0341C53.6907 85.054 53.5501 85.071 53.4421 85.0852C53.1808 85.1193 52.9364 85.1747 52.7092 85.2514C52.4847 85.3253 52.3029 85.4375 52.1637 85.5881C52.0273 85.7358 51.9592 85.9375 51.9592 86.1932C51.9592 86.5426 52.0884 86.8068 52.3469 86.9858C52.6083 87.1619 52.9393 87.25 53.3398 87.25ZM60.4936 88.1364C59.9482 88.1364 59.4666 87.9986 59.049 87.723C58.6314 87.4446 58.3047 87.0526 58.0689 86.5469C57.8331 86.0384 57.7152 85.4375 57.7152 84.7443C57.7152 84.0568 57.8331 83.4602 58.0689 82.9545C58.3047 82.4489 58.6328 82.0582 59.0533 81.7827C59.4737 81.5071 59.9595 81.3693 60.5107 81.3693C60.9368 81.3693 61.2734 81.4403 61.5206 81.5824C61.7706 81.7216 61.9609 81.8807 62.0916 82.0597C62.2251 82.2358 62.3288 82.3807 62.4027 82.4943H62.4879V79.2727H63.4936V88H62.522V86.9943H62.4027C62.3288 87.1136 62.2237 87.2642 62.0874 87.446C61.951 87.625 61.7564 87.7855 61.5036 87.9276C61.2507 88.0668 60.9141 88.1364 60.4936 88.1364ZM60.63 87.233C61.0334 87.233 61.3743 87.1278 61.6527 86.9176C61.9311 86.7045 62.1428 86.4105 62.2876 86.0355C62.4325 85.6577 62.505 85.2216 62.505 84.7273C62.505 84.2386 62.4339 83.8111 62.2919 83.4446C62.1499 83.0753 61.9396 82.7884 61.6612 82.5838C61.3828 82.3764 61.0391 82.2727 60.63 82.2727C60.2038 82.2727 59.8487 82.3821 59.5646 82.6009C59.2834 82.8168 59.0717 83.1108 58.9297 83.483C58.7905 83.8523 58.7209 84.267 58.7209 84.7273C58.7209 85.1932 58.7919 85.6165 58.9339 85.9972C59.0788 86.375 59.2919 86.6761 59.5732 86.9006C59.8572 87.1222 60.2095 87.233 60.63 87.233ZM65.4751 88V81.4545H66.4808V88H65.4751ZM65.9865 80.3636C65.7905 80.3636 65.6214 80.2969 65.4794 80.1634C65.3402 80.0298 65.2706 79.8693 65.2706 79.6818C65.2706 79.4943 65.3402 79.3338 65.4794 79.2003C65.6214 79.0668 65.7905 79 65.9865 79C66.1825 79 66.3501 79.0668 66.4893 79.2003C66.6314 79.3338 66.7024 79.4943 66.7024 79.6818C66.7024 79.8693 66.6314 80.0298 66.4893 80.1634C66.3501 80.2969 66.1825 80.3636 65.9865 80.3636ZM69.3285 84.0625V88H68.3228V81.4545H69.2944V82.4773H69.3796C69.533 82.1449 69.766 81.8778 70.0785 81.6761C70.391 81.4716 70.7944 81.3693 71.2887 81.3693C71.7319 81.3693 72.1197 81.4602 72.4521 81.642C72.7844 81.821 73.043 82.0938 73.2276 82.4602C73.4123 82.8239 73.5046 83.2841 73.5046 83.8409V88H72.4989V83.9091C72.4989 83.3949 72.3654 82.9943 72.0984 82.7074C71.8313 82.4176 71.4648 82.2727 70.9989 82.2727C70.6779 82.2727 70.391 82.3423 70.1381 82.4815C69.8881 82.6207 69.6907 82.8239 69.5458 83.0909C69.4009 83.358 69.3285 83.6818 69.3285 84.0625ZM77.9844 90.5909C77.4986 90.5909 77.081 90.5284 76.7315 90.4034C76.3821 90.2812 76.0909 90.1193 75.858 89.9176C75.6278 89.7188 75.4446 89.5057 75.3082 89.2784L76.1094 88.7159C76.2003 88.8352 76.3153 88.9716 76.4545 89.125C76.5938 89.2812 76.7841 89.4162 77.0256 89.5298C77.2699 89.6463 77.5895 89.7045 77.9844 89.7045C78.5128 89.7045 78.9489 89.5767 79.2926 89.321C79.6364 89.0653 79.8082 88.6648 79.8082 88.1193V86.7898H79.723C79.6491 86.9091 79.544 87.0568 79.4077 87.233C79.2741 87.4062 79.081 87.5611 78.8281 87.6974C78.5781 87.831 78.2401 87.8977 77.8139 87.8977C77.2855 87.8977 76.8111 87.7727 76.3906 87.5227C75.973 87.2727 75.642 86.9091 75.3977 86.4318C75.1563 85.9545 75.0355 85.375 75.0355 84.6932C75.0355 84.0227 75.1534 83.4389 75.3892 82.9418C75.625 82.4418 75.9531 82.0554 76.3736 81.7827C76.794 81.5071 77.2798 81.3693 77.831 81.3693C78.2571 81.3693 78.5952 81.4403 78.8452 81.5824C79.098 81.7216 79.2912 81.8807 79.4247 82.0597C79.5611 82.2358 79.6662 82.3807 79.7401 82.4943H79.8423V81.4545H80.8139V88.1875C80.8139 88.75 80.6861 89.2074 80.4304 89.5597C80.1776 89.9148 79.8366 90.1747 79.4077 90.3395C78.9815 90.5071 78.5071 90.5909 77.9844 90.5909ZM77.9503 86.9943C78.3537 86.9943 78.6946 86.902 78.973 86.7173C79.2514 86.5327 79.4631 86.267 79.608 85.9205C79.7528 85.5739 79.8253 85.1591 79.8253 84.6761C79.8253 84.2045 79.7543 83.7884 79.6122 83.4276C79.4702 83.0668 79.2599 82.7841 78.9815 82.5795C78.7031 82.375 78.3594 82.2727 77.9503 82.2727C77.5241 82.2727 77.169 82.3807 76.8849 82.5966C76.6037 82.8125 76.392 83.1023 76.25 83.4659C76.1108 83.8295 76.0412 84.233 76.0412 84.6761C76.0412 85.1307 76.1122 85.5327 76.2543 85.8821C76.3991 86.2287 76.6122 86.5014 76.8935 86.7003C77.1776 86.8963 77.5298 86.9943 77.9503 86.9943ZM83.3878 88.0682C83.1776 88.0682 82.9972 87.9929 82.8466 87.8423C82.696 87.6918 82.6207 87.5114 82.6207 87.3011C82.6207 87.0909 82.696 86.9105 82.8466 86.7599C82.9972 86.6094 83.1776 86.5341 83.3878 86.5341C83.598 86.5341 83.7784 86.6094 83.929 86.7599C84.0795 86.9105 84.1548 87.0909 84.1548 87.3011C84.1548 87.4403 84.1193 87.5682 84.0483 87.6847C83.9801 87.8011 83.8878 87.8949 83.7713 87.9659C83.6577 88.0341 83.5298 88.0682 83.3878 88.0682ZM86.6925 88.0682C86.4822 88.0682 86.3018 87.9929 86.1513 87.8423C86.0007 87.6918 85.9254 87.5114 85.9254 87.3011C85.9254 87.0909 86.0007 86.9105 86.1513 86.7599C86.3018 86.6094 86.4822 86.5341 86.6925 86.5341C86.9027 86.5341 87.0831 86.6094 87.2337 86.7599C87.3842 86.9105 87.4595 87.0909 87.4595 87.3011C87.4595 87.4403 87.424 87.5682 87.353 87.6847C87.2848 87.8011 87.1925 87.8949 87.076 87.9659C86.9624 88.0341 86.8345 88.0682 86.6925 88.0682ZM89.9972 88.0682C89.7869 88.0682 89.6065 87.9929 89.456 87.8423C89.3054 87.6918 89.2301 87.5114 89.2301 87.3011C89.2301 87.0909 89.3054 86.9105 89.456 86.7599C89.6065 86.6094 89.7869 86.5341 89.9972 86.5341C90.2074 86.5341 90.3878 86.6094 90.5384 86.7599C90.6889 86.9105 90.7642 87.0909 90.7642 87.3011C90.7642 87.4403 90.7287 87.5682 90.6577 87.6847C90.5895 87.8011 90.4972 87.8949 90.3807 87.9659C90.267 88.0341 90.1392 88.0682 89.9972 88.0682Z" fill="white"/>
</svg>
